<svg width="50" height="50" viewBox="0 0 50 50" fill="none" xmlns="http://www.w3.org/2000/svg">
<circle cx="25" cy="25" r="24.5" fill="#FBFBFB" stroke="#F0F0F0"/>
<g clip-path="url(#clip0_1949_132)">
<path d="M37.8807 18.0177L36.129 17.7986V17.1302C37.0053 16.5174 37.5806 15.5026 37.5806 14.3548V13.871H38.5484V12.9032H37.5806V12.4194C37.5806 11.0854 36.4952 10 35.1613 10H33.2258C31.8919 10 30.8065 11.0854 30.8065 12.4194V12.9032H29.8387V13.871H30.8065V14.3548C30.8065 15.5031 31.3818 16.5178 32.2581 17.1302V17.7986L30.5064 18.0177C29.8456 18.1001 29.257 18.4538 28.8681 18.9752L26.9355 18.7605V18.098C27.8118 17.4851 28.3871 16.4704 28.3871 15.3226V14.8387H29.3548V13.871H28.3871V13.3871C28.3871 12.0531 27.3017 10.9677 25.9677 10.9677H24.0323C22.6983 10.9677 21.6129 12.0531 21.6129 13.3871V13.871H20.6452V14.8387H21.6129V15.3226C21.6129 16.4708 22.1882 17.4856 23.0645 18.098V18.7605L21.1319 18.9752C20.743 18.4538 20.1544 18.1006 19.4936 18.0177L17.7419 17.7986V17.1302C18.6182 16.5174 19.1935 15.5026 19.1935 14.3548V13.871H20.1613V12.9032H19.1935V12.4194C19.1935 11.0854 18.1081 10 16.7742 10H14.8387C13.5048 10 12.4194 11.0854 12.4194 12.4194V12.9032H11.4516V13.871H12.4194V14.3548C12.4194 15.5031 12.9947 16.5178 13.871 17.1302V17.7986L12.1193 18.0177C10.911 18.1682 10 19.2009 10 20.4181V26.9355C10 27.7357 10.6514 28.3871 11.4516 28.3871C11.6302 28.3871 11.7989 28.3502 11.9567 28.2912L12.4392 40H19.1737L19.6614 28.2928C19.8178 28.3507 19.9846 28.3871 20.1613 28.3871C20.5344 28.3871 20.8722 28.2416 21.1295 28.0093V28.4079L21.6332 40H28.3663L28.871 28.3871V28.0098C29.1285 28.242 29.4656 28.3871 29.8387 28.3871C30.0173 28.3871 30.186 28.3502 30.3438 28.2912L30.8263 40H37.5608L38.0484 28.2928C38.2049 28.3507 38.3717 28.3871 38.5484 28.3871C39.3486 28.3871 40 27.7357 40 26.9355V20.4181C40 19.2009 39.089 18.1682 37.8807 18.0177ZM35.8198 18.7354L36.1281 18.7739L35.4821 20.2818L34.8778 19.6774L35.8198 18.7354ZM36.6129 12.4194V12.9032H35.2485L35.5606 11.0306C36.1664 11.2054 36.6129 11.7583 36.6129 12.4194ZM33.7969 10.9677H34.5898L34.267 12.9032H34.1191L33.7969 10.9677ZM31.7742 12.4194C31.7742 11.7583 32.2207 11.2054 32.8265 11.0306L33.1386 12.9032H31.7742V12.4194ZM31.7742 14.3548V13.871H36.6129V14.3548C36.6129 15.6888 35.5275 16.7742 34.1935 16.7742C32.8596 16.7742 31.7742 15.6888 31.7742 14.3548ZM34.1935 17.7419C34.5298 17.7419 34.8546 17.6911 35.1613 17.5992V18.0255L34.1935 18.9932L33.2258 18.0255V17.5992C33.5325 17.6911 33.8573 17.7419 34.1935 17.7419ZM32.5673 18.7354L33.5093 19.6774L32.905 20.2818L32.259 18.7739L32.5673 18.7354ZM27.4194 13.3871V13.871H26.0549L26.367 11.9983C26.9728 12.1732 27.4194 12.726 27.4194 13.3871ZM24.6033 11.9355H25.3962L25.0735 13.871H24.9256L24.6033 11.9355ZM22.5806 13.3871C22.5806 12.726 23.0272 12.1732 23.633 11.9983L23.9451 13.871H22.5806V13.3871ZM22.5806 15.3226V14.8387H27.4194V15.3226C27.4194 16.6565 26.334 17.7419 25 17.7419C23.666 17.7419 22.5806 16.6565 22.5806 15.3226ZM25 18.7097C25.3362 18.7097 25.6611 18.6589 25.9677 18.567V18.9346L25 19.5796L24.0323 18.9346V18.567C24.3389 18.6589 24.6638 18.7097 25 18.7097ZM23.4265 19.694L25 20.743L26.5735 19.694L29.0316 19.9668C29.7676 20.0491 30.3226 20.6688 30.3226 21.4097V24.5161C30.3226 24.7826 30.1052 25 29.8387 25H26.9355C26.669 25 26.4516 24.7826 26.4516 24.5161C26.4516 24.2496 26.669 24.0323 26.9355 24.0323H29.3548V21.129H28.3871V23.0645H27.4194V21.129H22.5806V23.0645H21.6129V21.129H20.6452V24.0323H23.0645C23.331 24.0323 23.5484 24.2496 23.5484 24.5161C23.5484 24.7826 23.331 25 23.0645 25H20.1613C19.8948 25 19.6774 24.7826 19.6774 24.5161V21.4097C19.6774 20.6688 20.2324 20.0491 20.9684 19.9668L23.4265 19.694ZM22.0968 27.9032V25.9677H22.5806V26.9355H27.4194V25.9677H27.9032L27.9037 27.9032H22.0968ZM23.5484 23.1536V22.0968H26.4516V23.1536C25.8898 23.3539 25.4839 23.8862 25.4839 24.5161C25.4839 25.146 25.8898 25.6783 26.4516 25.8787V25.9677H23.5484V25.8787C24.1102 25.6783 24.5161 25.146 24.5161 24.5161C24.5161 23.8862 24.1102 23.3539 23.5484 23.1536ZM17.8856 18.7919L17.1255 20.3123L16.4907 19.6774L17.4327 18.7354L17.8856 18.7919ZM16.27 24.3361L15.8065 24.7996L15.3429 24.3361L15.733 20.4351L15.8065 20.3616L15.8799 20.4351L16.27 24.3361ZM18.2258 12.4194V12.9032H16.8614L17.1735 11.0306C17.7793 11.2054 18.2258 11.7583 18.2258 12.4194ZM15.4098 10.9677H16.2027L15.8799 12.9032H15.732L15.4098 10.9677ZM13.3871 12.4194C13.3871 11.7583 13.8336 11.2054 14.4394 11.0306L14.7515 12.9032H13.3871V12.4194ZM13.3871 14.3548V13.871H18.2258V14.3548C18.2258 15.6888 17.1404 16.7742 15.8065 16.7742C14.4725 16.7742 13.3871 15.6888 13.3871 14.3548ZM15.8065 17.7419C16.1427 17.7419 16.4675 17.6911 16.7742 17.5992V18.0255L15.8065 18.9932L14.8387 18.0255V17.5992C15.1454 17.6911 15.4702 17.7419 15.8065 17.7419ZM14.1802 18.7354L15.1222 19.6774L14.4874 20.3123L13.7273 18.7919L14.1802 18.7354ZM11.4516 27.4194C11.1851 27.4194 10.9677 27.202 10.9677 26.9355V20.4181C10.9677 19.6876 11.5145 19.0683 12.2393 18.9778L12.7088 18.9192L14.2223 21.9458L14.6525 21.5156L14.3345 24.6962L15.8065 26.1681L17.2784 24.6962L16.9604 21.5156L17.3906 21.9458L18.9041 18.9192L19.3736 18.9778C19.6217 19.0088 19.8511 19.1059 20.0472 19.2486C19.2486 19.6484 18.7097 20.4691 18.7097 21.4097V26.9355H12.9032V21.6129H11.9355V26.9355C11.9355 27.202 11.7181 27.4194 11.4516 27.4194ZM12.9032 27.9032H15.3226V39.0323H13.3673L12.9032 27.9032ZM16.2903 39.0323V27.9032H18.7092L18.2457 39.0323H16.2903ZM20.1613 27.4194C19.8948 27.4194 19.6774 27.202 19.6774 26.9355V25.8787C19.8293 25.933 19.9909 25.9677 20.1613 25.9677H20.6452V26.9355C20.6452 27.202 20.4278 27.4194 20.1613 27.4194ZM22.118 28.871H24.5161V39.0323H22.5603L22.118 28.871ZM25.4839 39.0323V28.871H27.882L27.4401 39.0323H25.4839ZM29.8387 27.4194C29.5722 27.4194 29.3548 27.202 29.3548 26.9355V25.9677H29.8387C30.0091 25.9677 30.1707 25.933 30.3226 25.8787V26.9355C30.3226 27.202 30.1052 27.4194 29.8387 27.4194ZM31.2903 27.9032H33.7097V39.0323H31.7543L31.2903 27.9032ZM34.6774 39.0323V27.9032H37.0963L36.6327 39.0323H34.6774ZM39.0323 26.9355C39.0323 27.202 38.8149 27.4194 38.5484 27.4194C38.2819 27.4194 38.0645 27.202 38.0645 26.9355V21.6129H37.0968V26.9355H31.2903V21.4097C31.2903 20.4691 30.7514 19.6479 29.9528 19.2486C30.1485 19.1059 30.3783 19.0088 30.6264 18.9778L31.2598 18.8985L32.5789 21.9763L34.1935 20.3616L35.8082 21.9763L37.1273 18.8985L37.7607 18.9778C38.4855 19.0683 39.0323 19.6876 39.0323 20.4181V26.9355Z" fill="#FF7616"/>
<path d="M33.7097 21.129H34.6774V22.0968H33.7097V21.129Z" fill="#FF7616"/>
<path d="M33.7097 23.0646H34.6774V24.0323H33.7097V23.0646Z" fill="#FF7616"/>
</g>
<defs>
<clipPath id="clip0_1949_132">
<rect width="30" height="30" fill="white" transform="translate(10 10)"/>
</clipPath>
</defs>
</svg>
