<svg width="50" height="50" viewBox="0 0 50 50" fill="none" xmlns="http://www.w3.org/2000/svg">
<circle cx="25" cy="25" r="24.5" fill="#FBFBFB" stroke="#F0F0F0"/>
<path d="M37.5412 21.3115V20.8197C37.548 16.4168 34.4708 12.6103 30.1642 11.6942V10.4918C30.1642 10.2202 29.9439 10 29.6723 10H26.7215C26.4499 10 26.2297 10.2202 26.2297 10.4918V11.6899C23.6473 12.2376 21.4197 13.8586 20.1042 16.1476L20.9555 16.6394C21.6416 15.4557 22.6084 14.4591 23.7707 13.7378V15.9017H24.7543V13.2104C25.2291 12.9969 25.7233 12.8288 26.2297 12.7083V17.3771C26.2297 17.6487 26.4499 17.8689 26.7215 17.8689H29.6723C29.9439 17.8689 30.1642 17.6487 30.1642 17.3771V12.6975C30.6708 12.819 31.1651 12.9885 31.6396 13.2037V15.9017H32.6232V13.726C33.1611 14.0624 33.6599 14.4584 34.1094 14.9063C35.6809 16.4725 36.5622 18.6011 36.5576 20.8197V21.3115H35.0822V19.3443C35.0822 19.0727 34.862 18.8525 34.5904 18.8525H31.6396C31.368 18.8525 31.1478 19.0727 31.1478 19.3443V20.8197H32.1314V19.8361H34.0986V21.3115H32.6232V22.2951H37.5412C38.0844 22.2951 38.5248 22.7355 38.5248 23.2787C38.5248 23.8219 38.0844 24.2623 37.5412 24.2623H30.656V25.2459H37.5412C38.6276 25.2459 39.5084 24.3651 39.5084 23.2787C39.5084 22.1923 38.6276 21.3115 37.5412 21.3115ZM29.1805 16.8853H27.2133V10.9836H29.1805V16.8853Z" fill="#FF7616"/>
<path d="M10.4918 31.1475H12.8152C12.9967 31.7769 13.2484 32.3837 13.5656 32.9569L11.9221 34.6004C11.73 34.7926 11.73 35.1038 11.9221 35.2959L14.7041 38.0779C14.8962 38.27 15.2074 38.27 15.3995 38.0779L17.043 36.4344C17.6163 36.7516 18.2231 37.0033 18.8525 37.1848V39.5082C18.8525 39.7798 19.0727 40 19.3443 40H23.2787C23.5503 40 23.7705 39.7798 23.7705 39.5082V37.1848C24.3999 37.0033 25.0068 36.7516 25.58 36.4344L27.2235 38.0779C27.4156 38.27 27.7268 38.27 27.9189 38.0779L30.7009 35.2959C30.8931 35.1038 30.8931 34.7926 30.7009 34.6004L29.0574 32.9569C29.3747 32.3837 29.6263 31.7769 29.8079 31.1475H32.1312C32.4028 31.1475 32.623 30.9273 32.623 30.6557V26.7212C32.623 26.4496 32.4028 26.2294 32.1312 26.2294H29.8079C29.6263 25.6003 29.3744 24.9932 29.0574 24.42L30.7009 22.7765C30.8931 22.5844 30.8931 22.2731 30.7009 22.081L27.9189 19.299C27.7268 19.1069 27.4156 19.1069 27.2235 19.299L25.58 20.9425C25.0068 20.6253 24.3999 20.3736 23.7705 20.1921V17.8688C23.7705 17.5972 23.5503 17.377 23.2787 17.377H19.3443C19.0727 17.377 18.8525 17.5972 18.8525 17.8688V20.1921C18.2231 20.3736 17.6163 20.6253 17.043 20.9425L15.3995 19.299C15.2074 19.1069 14.8962 19.1069 14.7041 19.299L11.9221 22.081C11.73 22.2731 11.73 22.5844 11.9221 22.7765L13.5656 24.42C13.2486 24.9932 12.9967 25.6003 12.8152 26.2294H10.4918C10.2202 26.2294 10 26.4496 10 26.7212V30.6557C10 30.9273 10.2202 31.1475 10.4918 31.1475ZM10.9836 27.2131H13.1934C13.4203 27.2131 13.6179 27.0574 13.6712 26.8368C13.8626 26.0462 14.176 25.2903 14.6003 24.5963C14.7187 24.4025 14.689 24.1527 14.5285 23.9923L12.965 22.4288L15.0518 20.342L16.6154 21.9055C16.776 22.0661 17.0257 22.0959 17.2198 21.9773C17.9133 21.5525 18.6693 21.2391 19.4598 21.0482C19.6805 20.9949 19.8361 20.7973 19.8361 20.5703V18.3606H22.7869V20.5703C22.7869 20.7973 22.9425 20.9949 23.1632 21.0482C23.9538 21.2391 24.7097 21.5525 25.4032 21.9773C25.5973 22.0959 25.847 22.0661 26.0077 21.9055L27.5712 20.342L29.658 22.4288L28.0945 23.9923C27.9341 24.1527 27.9043 24.4025 28.0227 24.5963C28.447 25.2903 28.7604 26.0462 28.9518 26.8368C29.0051 27.0574 29.2027 27.2131 29.4297 27.2131H31.6394V30.1639H29.4297C29.2027 30.1639 29.0051 30.3195 28.9518 30.5402C28.7609 31.3307 28.4475 32.0867 28.0227 32.7802C27.904 32.9742 27.9338 33.224 28.0945 33.3846L29.658 34.9482L27.5712 37.035L26.0077 35.4714C25.847 35.3108 25.5973 35.281 25.4032 35.3996C24.7097 35.8244 23.9538 36.1378 23.1632 36.3287C22.9425 36.382 22.7869 36.5797 22.7869 36.8066V39.0164H19.8361V36.8066C19.8361 36.5797 19.6805 36.382 19.4598 36.3287C18.6693 36.1378 17.9133 35.8244 17.2198 35.3996C17.0257 35.281 16.776 35.3108 16.6154 35.4714L15.0518 37.035L12.965 34.9482L14.5285 33.3846C14.6892 33.224 14.719 32.9742 14.6003 32.7802C14.1755 32.0867 13.8622 31.3307 13.6712 30.5402C13.6179 30.3195 13.4203 30.1639 13.1934 30.1639H10.9836V27.2131Z" fill="#FF7616"/>
<path d="M21.3115 34.5901C24.5709 34.5901 27.2131 31.9478 27.2131 28.6884C27.2131 25.429 24.5709 22.7867 21.3115 22.7867C18.0521 22.7867 15.4098 25.429 15.4098 28.6884C15.4134 31.9464 18.0535 34.5865 21.3115 34.5901ZM21.3115 23.7704C24.0277 23.7704 26.2295 25.9722 26.2295 28.6884C26.2295 31.4046 24.0277 33.6064 21.3115 33.6064C18.5953 33.6064 16.3934 31.4046 16.3934 28.6884C16.3963 25.9734 18.5965 23.7732 21.3115 23.7704Z" fill="#FF7616"/>
<path d="M21.3116 31.6394C22.9412 31.6394 24.2625 30.3182 24.2625 28.6886C24.2625 27.059 22.9412 25.7378 21.3116 25.7378C19.6821 25.7378 18.3608 27.059 18.3608 28.6886C18.3625 30.3177 19.6825 31.6378 21.3116 31.6394ZM21.3116 26.7214C22.398 26.7214 23.2789 27.6022 23.2789 28.6886C23.2789 29.775 22.398 30.6558 21.3116 30.6558C20.2252 30.6558 19.3444 29.775 19.3444 28.6886C19.3444 27.6022 20.2252 26.7214 21.3116 26.7214Z" fill="#FF7616"/>
</svg>
