<svg width="50" height="50" viewBox="0 0 50 50" fill="none" xmlns="http://www.w3.org/2000/svg">
<circle cx="25" cy="25" r="24.5" fill="#FBFBFB" stroke="#F0F0F0"/>
<path d="M38.1462 37.9888H37.3035V11.5281C37.3035 11.2488 37.0771 11.0225 36.7979 11.0225H27.3597C27.0804 11.0225 26.8541 11.2488 26.8541 11.5281V13.7191H25.8428V11.5281C25.8428 11.2488 25.6164 11.0225 25.3372 11.0225H23.1462V9.50561C23.1462 9.22629 22.9198 9 22.6406 9C22.3614 9 22.135 9.22629 22.135 9.50561V11.0225H19.944C19.6647 11.0225 19.4384 11.2488 19.4384 11.5281V13.7191H17.9215C17.6422 13.7191 17.4159 13.9454 17.4159 14.2247V18.4382H13.2024C12.9232 18.4382 12.6968 18.6645 12.6968 18.9438V37.9887H11.854C11.5747 37.9887 11.3484 38.215 11.3484 38.4943C11.3484 38.7737 11.5748 39 11.854 39H38.1462C38.4254 39 38.6518 38.7737 38.6518 38.4944C38.6518 38.2151 38.4254 37.9888 38.1462 37.9888ZM20.4495 12.0337H24.8315V13.7191H20.4495V12.0337ZM18.7641 37.9888H18.427V37.1461C18.427 36.8668 18.2006 36.6405 17.9214 36.6405C17.6422 36.6405 17.4158 36.8668 17.4158 37.1461V37.9888H17.0787V36.3034H18.7641V37.9888ZM22.1349 25.0112V25.881V37.9888H19.7753V35.7978C19.7753 35.5185 19.5489 35.2922 19.2697 35.2922H16.5731C16.2939 35.2922 16.0675 35.5185 16.0675 35.7978V37.9888H13.708V19.4494H22.1349V25.0112ZM22.6405 18.4382H18.427V14.7304H26.854V24.5056H23.1462V22.8202H24.6631C24.9423 22.8202 25.1687 22.5939 25.1687 22.3146C25.1687 22.0353 24.9423 21.809 24.6631 21.809H23.1462V20.1236H24.6631C24.9423 20.1236 25.1687 19.8973 25.1687 19.618C25.1687 19.3387 24.9423 19.1124 24.6631 19.1124H23.1462V18.9439C23.1462 18.6645 22.9198 18.4382 22.6405 18.4382ZM31.5731 37.9888H23.1462V25.881V25.5169H31.5731V37.9888ZM36.2922 37.9888H32.5844V25.0112V24.337C32.5844 24.0577 32.3579 23.8314 32.0787 23.8314C31.7995 23.8314 31.5731 24.0577 31.5731 24.337V24.5055H30.5619V24.337C30.5619 24.0577 30.3355 23.8314 30.0563 23.8314C29.7771 23.8314 29.5507 24.0577 29.5507 24.337V24.5055H27.8653V14.2247V12.0337H36.2923V37.9888H36.2922Z" fill="#FF7616"/>
<path d="M25.3374 36.9774C25.6166 36.9774 25.843 36.751 25.843 36.4718V27.0337C25.843 26.7544 25.6166 26.5281 25.3374 26.5281C25.0582 26.5281 24.8318 26.7544 24.8318 27.0337V36.4719C24.8318 36.7511 25.0581 36.9774 25.3374 36.9774Z" fill="#FF7616"/>
<path d="M27.3598 36.9774C27.6391 36.9774 27.8654 36.751 27.8654 36.4718V27.0337C27.8654 26.7544 27.639 26.5281 27.3598 26.5281C27.0806 26.5281 26.8542 26.7544 26.8542 27.0337V36.4719C26.8541 36.7511 27.0805 36.9774 27.3598 36.9774Z" fill="#FF7616"/>
<path d="M29.5962 36.904C29.8754 36.904 30.1018 36.6776 30.1018 36.3984V26.9602C30.1018 26.6809 29.8754 26.4546 29.5962 26.4546C29.317 26.4546 29.0906 26.6809 29.0906 26.9602V36.3984C29.0906 36.6776 29.317 36.904 29.5962 36.904Z" fill="#FF7616"/>
<path d="M30.0561 15.4044C30.3354 15.4044 30.5617 15.1782 30.5617 14.8988V14.2247C30.5617 13.9454 30.3353 13.7191 30.0561 13.7191C29.7769 13.7191 29.5505 13.9454 29.5505 14.2247V14.8989C29.5505 15.1782 29.7769 15.4044 30.0561 15.4044Z" fill="#FF7616"/>
<path d="M32.0786 15.4044C32.3578 15.4044 32.5842 15.1782 32.5842 14.8988V14.2247C32.5842 13.9454 32.3578 13.7191 32.0786 13.7191C31.7994 13.7191 31.573 13.9454 31.573 14.2247V14.8989C31.573 15.1782 31.7993 15.4044 32.0786 15.4044Z" fill="#FF7616"/>
<path d="M34.1014 15.4044C34.3807 15.4044 34.607 15.1782 34.607 14.8988V14.2247C34.607 13.9454 34.3806 13.7191 34.1014 13.7191C33.8222 13.7191 33.5958 13.9454 33.5958 14.2247V14.8989C33.5958 15.1782 33.8222 15.4044 34.1014 15.4044Z" fill="#FF7616"/>
<path d="M30.0561 18.7751C30.3354 18.7751 30.5617 18.5488 30.5617 18.2695V17.5953C30.5617 17.316 30.3353 17.0897 30.0561 17.0897C29.7769 17.0897 29.5505 17.316 29.5505 17.5953V18.2695C29.5505 18.5488 29.7769 18.7751 30.0561 18.7751Z" fill="#FF7616"/>
<path d="M32.0786 18.7751C32.3578 18.7751 32.5842 18.5488 32.5842 18.2695V17.5953C32.5842 17.316 32.3578 17.0897 32.0786 17.0897C31.7994 17.0897 31.573 17.316 31.573 17.5953V18.2695C31.573 18.5488 31.7993 18.7751 32.0786 18.7751Z" fill="#FF7616"/>
<path d="M34.1014 18.7751C34.3807 18.7751 34.607 18.5488 34.607 18.2695V17.5953C34.607 17.316 34.3806 17.0897 34.1014 17.0897C33.8222 17.0897 33.5958 17.316 33.5958 17.5953V18.2695C33.5958 18.5488 33.8222 18.7751 34.1014 18.7751Z" fill="#FF7616"/>
<path d="M30.0561 22.1462C30.3354 22.1462 30.5617 21.9199 30.5617 21.6406V20.9664C30.5617 20.6871 30.3353 20.4608 30.0561 20.4608C29.7769 20.4608 29.5505 20.6871 29.5505 20.9664V21.6406C29.5505 21.9199 29.7769 22.1462 30.0561 22.1462Z" fill="#FF7616"/>
<path d="M32.0786 22.1462C32.3578 22.1462 32.5842 21.9199 32.5842 21.6406V20.9664C32.5842 20.6871 32.3578 20.4608 32.0786 20.4608C31.7994 20.4608 31.573 20.6871 31.573 20.9664V21.6406C31.573 21.9199 31.7993 22.1462 32.0786 22.1462Z" fill="#FF7616"/>
<path d="M34.1014 22.1462C34.3807 22.1462 34.607 21.9199 34.607 21.6406V20.9664C34.607 20.6871 34.3806 20.4608 34.1014 20.4608C33.8222 20.4608 33.5958 20.6871 33.5958 20.9664V21.6406C33.5958 21.9199 33.8222 22.1462 34.1014 22.1462Z" fill="#FF7616"/>
<path d="M15.8988 23.4942C16.1781 23.4942 16.4044 23.2679 16.4044 22.9886V22.3144C16.4044 22.0351 16.178 21.8088 15.8988 21.8088C15.6196 21.8088 15.3932 22.0351 15.3932 22.3144V22.9886C15.3932 23.2679 15.6196 23.4942 15.8988 23.4942Z" fill="#FF7616"/>
<path d="M17.9213 23.4942C18.2005 23.4942 18.4269 23.2679 18.4269 22.9886V22.3144C18.4269 22.0351 18.2005 21.8088 17.9213 21.8088C17.6421 21.8088 17.4156 22.0351 17.4156 22.3144V22.9886C17.4156 23.2679 17.642 23.4942 17.9213 23.4942Z" fill="#FF7616"/>
<path d="M19.9441 23.4942C20.2234 23.4942 20.4497 23.2679 20.4497 22.9886V22.3144C20.4497 22.0351 20.2233 21.8088 19.9441 21.8088C19.6649 21.8088 19.4385 22.0351 19.4385 22.3144V22.9886C19.4385 23.2679 19.6649 23.4942 19.9441 23.4942Z" fill="#FF7616"/>
<path d="M15.8988 26.8653C16.1781 26.8653 16.4044 26.639 16.4044 26.3597V25.6855C16.4044 25.4062 16.178 25.1799 15.8988 25.1799C15.6196 25.1799 15.3932 25.4062 15.3932 25.6855V26.3597C15.3932 26.639 15.6196 26.8653 15.8988 26.8653Z" fill="#FF7616"/>
<path d="M17.9213 26.8653C18.2005 26.8653 18.4269 26.639 18.4269 26.3597V25.6855C18.4269 25.4062 18.2005 25.1799 17.9213 25.1799C17.6421 25.1799 17.4156 25.4062 17.4156 25.6855V26.3597C17.4156 26.639 17.642 26.8653 17.9213 26.8653Z" fill="#FF7616"/>
<path d="M19.9441 26.8653C20.2234 26.8653 20.4497 26.639 20.4497 26.3597V25.6855C20.4497 25.4062 20.2233 25.1799 19.9441 25.1799C19.6649 25.1799 19.4385 25.4062 19.4385 25.6855V26.3597C19.4385 26.639 19.6649 26.8653 19.9441 26.8653Z" fill="#FF7616"/>
<path d="M15.8988 30.2359C16.1781 30.2359 16.4044 30.0096 16.4044 29.7303V29.0561C16.4044 28.7768 16.178 28.5505 15.8988 28.5505C15.6196 28.5505 15.3932 28.7768 15.3932 29.0561V29.7303C15.3932 30.0096 15.6196 30.2359 15.8988 30.2359Z" fill="#FF7616"/>
<path d="M17.9213 30.2359C18.2005 30.2359 18.4269 30.0096 18.4269 29.7303V29.0561C18.4269 28.7768 18.2005 28.5505 17.9213 28.5505C17.6421 28.5505 17.4156 28.7768 17.4156 29.0561V29.7303C17.4156 30.0096 17.642 30.2359 17.9213 30.2359Z" fill="#FF7616"/>
<path d="M19.9441 30.2359C20.2234 30.2359 20.4497 30.0096 20.4497 29.7303V29.0561C20.4497 28.7768 20.2233 28.5505 19.9441 28.5505C19.6649 28.5505 19.4385 28.7768 19.4385 29.0561V29.7303C19.4385 30.0096 19.6649 30.2359 19.9441 30.2359Z" fill="#FF7616"/>
<path d="M15.8988 33.6065C16.1781 33.6065 16.4044 33.3802 16.4044 33.1009V32.4267C16.4044 32.1474 16.178 31.9211 15.8988 31.9211C15.6196 31.9211 15.3932 32.1474 15.3932 32.4267V33.1009C15.3932 33.3802 15.6196 33.6065 15.8988 33.6065Z" fill="#FF7616"/>
<path d="M17.9213 33.6065C18.2005 33.6065 18.4269 33.3802 18.4269 33.1009V32.4267C18.4269 32.1474 18.2005 31.9211 17.9213 31.9211C17.6421 31.9211 17.4156 32.1474 17.4156 32.4267V33.1009C17.4156 33.3802 17.642 33.6065 17.9213 33.6065Z" fill="#FF7616"/>
<path d="M19.9441 33.6065C20.2234 33.6065 20.4497 33.3802 20.4497 33.1009V32.4267C20.4497 32.1474 20.2233 31.9211 19.9441 31.9211C19.6649 31.9211 19.4385 32.1474 19.4385 32.4267V33.1009C19.4385 33.3802 19.6649 33.6065 19.9441 33.6065Z" fill="#FF7616"/>
<path d="M34.1014 25.5168C34.3807 25.5168 34.607 25.2905 34.607 25.0112V24.337C34.607 24.0577 34.3806 23.8314 34.1014 23.8314C33.8222 23.8314 33.5958 24.0577 33.5958 24.337V25.0112C33.5958 25.2905 33.8222 25.5168 34.1014 25.5168Z" fill="#FF7616"/>
<path d="M34.1014 28.8875C34.3807 28.8875 34.607 28.6612 34.607 28.3819V27.7078C34.607 27.4284 34.3806 27.2021 34.1014 27.2021C33.8222 27.2021 33.5958 27.4284 33.5958 27.7078V28.3819C33.5958 28.6612 33.8222 28.8875 34.1014 28.8875Z" fill="#FF7616"/>
<path d="M34.1014 32.2585C34.3807 32.2585 34.607 32.0322 34.607 31.7529V31.0787C34.607 30.7994 34.3806 30.5731 34.1014 30.5731C33.8222 30.5731 33.5958 30.7994 33.5958 31.0787V31.7529C33.5958 32.0322 33.8222 32.2585 34.1014 32.2585Z" fill="#FF7616"/>
<path d="M34.1014 35.6292C34.3807 35.6292 34.607 35.4029 34.607 35.1236V34.4495C34.607 34.1701 34.3806 33.9438 34.1014 33.9438C33.8222 33.9438 33.5958 34.1701 33.5958 34.4495V35.1236C33.5958 35.4029 33.8222 35.6292 34.1014 35.6292Z" fill="#FF7616"/>
<path d="M25.1686 16.9216C25.1686 16.6423 24.9422 16.416 24.663 16.416H20.618C20.3388 16.416 20.1124 16.6423 20.1124 16.9216C20.1124 17.2009 20.3388 17.4272 20.618 17.4272H24.663C24.9423 17.4272 25.1686 17.2009 25.1686 16.9216Z" fill="#FF7616"/>
</svg>
