<svg width="50" height="50" viewBox="0 0 50 50" fill="none" xmlns="http://www.w3.org/2000/svg">
<circle cx="25" cy="25" r="24.5" fill="#FBFBFB" stroke="#F0F0F0"/>
<path d="M20.024 25.2814C19.9189 25.1763 19.7608 25.1448 19.6235 25.2017C19.4862 25.2586 19.3967 25.3926 19.3967 25.5412V32.0631C19.3967 32.2661 19.5612 32.4306 19.7642 32.4306H26.286C26.4347 32.4306 26.5686 32.341 26.6256 32.2037C26.6824 32.0664 26.6509 31.9083 26.5459 31.8032L20.024 25.2814ZM20.1317 31.6956V26.4284L25.3988 31.6956H20.1317Z" fill="#FF7616"/>
<path d="M38.5702 12.2639L36.6594 10.3531C36.5159 10.2096 36.2832 10.2097 36.1397 10.3531L25.0969 21.396C25.0615 21.4313 25.0338 21.4735 25.0153 21.5199L23.8048 24.5592L18.9341 19.6884L19.8081 18.8143C19.9517 18.6708 19.9517 18.4382 19.8081 18.2946C19.6646 18.1511 19.432 18.1511 19.2885 18.2946L18.4144 19.1687L16.9481 17.7025V10.3675C16.9481 10.1645 16.7836 10 16.5807 10H12.3675C12.1645 10 12 10.1645 12 10.3675V39.6325C12 39.8355 12.1645 40 12.3675 40H16.5807C16.7836 40 16.9481 39.8355 16.9481 39.6325V35.6136H33.8199L34.8462 36.6399C34.9179 36.7116 35.0119 36.7475 35.106 36.7475C35.2001 36.7475 35.2941 36.7116 35.3659 36.6399C35.5094 36.4964 35.5094 36.2637 35.3659 36.1202L24.3641 25.1184L27.4034 23.908C27.4498 23.8894 27.492 23.8617 27.5273 23.8264L38.5702 12.7836C38.639 12.7147 38.6778 12.6212 38.6778 12.5237C38.6778 12.4262 38.639 12.3328 38.5702 12.2639ZM16.2131 39.265H12.735V38.6111H13.3662C13.5692 38.6111 13.7337 38.4466 13.7337 38.2436C13.7337 38.0406 13.5692 37.8761 13.3662 37.8761H12.735V36.7191H13.3662C13.5692 36.7191 13.7337 36.5546 13.7337 36.3516C13.7337 36.1486 13.5692 35.9841 13.3662 35.9841H12.735V34.8272H13.3662C13.5692 34.8272 13.7337 34.6627 13.7337 34.4597C13.7337 34.2567 13.5692 34.0922 13.3662 34.0922H12.735V32.9352H13.3662C13.5692 32.9352 13.7337 32.7707 13.7337 32.5678C13.7337 32.3648 13.5692 32.2003 13.3662 32.2003H12.735V31.0433H13.3662C13.5692 31.0433 13.7337 30.8788 13.7337 30.6758C13.7337 30.4729 13.5692 30.3084 13.3662 30.3084H12.735V29.1514H13.3662C13.5692 29.1514 13.7337 28.9869 13.7337 28.7839C13.7337 28.5809 13.5692 28.4164 13.3662 28.4164H12.735V27.2595H13.3662C13.5692 27.2595 13.7337 27.095 13.7337 26.892C13.7337 26.689 13.5692 26.5245 13.3662 26.5245H12.735V25.3675H13.3662C13.5692 25.3675 13.7337 25.203 13.7337 25C13.7337 24.797 13.5692 24.6325 13.3662 24.6325H12.735V23.4756H13.3662C13.5692 23.4756 13.7337 23.3111 13.7337 23.1081C13.7337 22.9051 13.5692 22.7406 13.3662 22.7406H12.735V21.5836H13.3662C13.5692 21.5836 13.7337 21.4191 13.7337 21.2161C13.7337 21.0131 13.5692 20.8486 13.3662 20.8486H12.735V19.6917H13.3662C13.5692 19.6917 13.7337 19.5272 13.7337 19.3242C13.7337 19.1212 13.5692 18.9567 13.3662 18.9567H12.735V17.7997H13.3662C13.5692 17.7997 13.7337 17.6352 13.7337 17.4322C13.7337 17.2293 13.5692 17.0648 13.3662 17.0648H12.735V15.9078H13.3662C13.5692 15.9078 13.7337 15.7433 13.7337 15.5403C13.7337 15.3373 13.5692 15.1728 13.3662 15.1728H12.735V14.0159H13.3662C13.5692 14.0159 13.7337 13.8514 13.7337 13.6484C13.7337 13.4454 13.5692 13.2809 13.3662 13.2809H12.735V12.1239H13.3662C13.5692 12.1239 13.7337 11.9594 13.7337 11.7564C13.7337 11.5534 13.5692 11.3889 13.3662 11.3889H12.735V10.735H16.2132V39.265H16.2131ZM16.9481 34.8786V18.7418L18.7365 20.5302L17.6909 21.5758C17.5474 21.7193 17.5474 21.952 17.6909 22.0955C17.7626 22.1673 17.8566 22.2031 17.9507 22.2031C18.0448 22.2031 18.1388 22.1673 18.2106 22.0955L19.2562 21.0499L20.0743 21.868L19.0287 22.9136C18.8851 23.0571 18.8851 23.2898 19.0287 23.4333C19.1004 23.5051 19.1944 23.5409 19.2885 23.5409C19.3826 23.5409 19.4766 23.5051 19.5484 23.4333L20.594 22.3877L21.4121 23.2058L20.3665 24.2514C20.2229 24.3949 20.2229 24.6276 20.3665 24.7711C20.4382 24.8428 20.5322 24.8787 20.6263 24.8787C20.7204 24.8787 20.8144 24.8428 20.8862 24.7711L21.9318 23.7255L22.7499 24.5436L21.7043 25.5892C21.5607 25.7327 21.5607 25.9654 21.7043 26.1089C21.776 26.1806 21.87 26.2165 21.9641 26.2165C22.0582 26.2165 22.1522 26.1806 22.224 26.1089L23.2696 25.0633L24.0877 25.8814L23.0421 26.927C22.8985 27.0705 22.8985 27.3032 23.0421 27.4467C23.1138 27.5184 23.2078 27.5543 23.3019 27.5543C23.396 27.5543 23.49 27.5184 23.5618 27.4467L24.6074 26.4011L25.4255 27.2192L24.3799 28.2648C24.2363 28.4083 24.2363 28.641 24.3799 28.7845C24.4516 28.8562 24.5456 28.8921 24.6397 28.8921C24.7338 28.8921 24.8278 28.8562 24.8996 28.7845L25.9452 27.7389L26.7633 28.557L25.7176 29.6026C25.5741 29.7461 25.5741 29.9788 25.7176 30.1223C25.7894 30.194 25.8834 30.2299 25.9775 30.2299C26.0716 30.2299 26.1656 30.194 26.2373 30.1223L27.283 29.0767L28.1011 29.8948L27.0554 30.9404C26.9119 31.0839 26.9119 31.3165 27.0554 31.4601C27.1272 31.5318 27.2212 31.5677 27.3153 31.5677C27.4093 31.5677 27.5034 31.5318 27.5751 31.4601L28.6208 30.4145L29.4388 31.2326L28.3932 32.2782C28.2497 32.4217 28.2497 32.6543 28.3932 32.7979C28.465 32.8696 28.559 32.9055 28.6531 32.9055C28.7472 32.9055 28.8412 32.8696 28.9129 32.7979L29.9585 31.7523L30.7766 32.5704L29.731 33.616C29.5875 33.7595 29.5875 33.9921 29.731 34.1357C29.8028 34.2074 29.8968 34.2433 29.9909 34.2433C30.085 34.2433 30.179 34.2074 30.2507 34.1357L31.2963 33.0901L33.0847 34.8785H16.9481V34.8786ZM26.8318 22.6112L35.9695 13.4734L36.4052 13.9091L27.2675 23.0468L26.8318 22.6112ZM26.3121 22.0915L25.8765 21.6558L35.0142 12.5181L35.4498 12.9537L26.3121 22.0915ZM25.4916 22.3104L26.6129 23.4317L24.7495 24.1738L25.4916 22.3104ZM36.9249 13.3894L35.534 11.9984L36.3996 11.1327L37.7906 12.5237L36.9249 13.3894Z" fill="#FF7616"/>
<path d="M36.2637 37.018C36.1202 36.8745 35.8875 36.8745 35.744 37.018C35.6005 37.1616 35.6005 37.3942 35.744 37.5377L36.8779 38.6716C36.9496 38.7434 37.0436 38.7793 37.1377 38.7793C37.2317 38.7793 37.3258 38.7434 37.3976 38.6716C37.5411 38.5281 37.5411 38.2954 37.3976 38.1519L36.2637 37.018Z" fill="#FF7616"/>
<path d="M38.295 39.0493C38.1514 38.9059 37.9188 38.9059 37.7753 39.0495C37.6318 39.1931 37.6319 39.4258 37.7755 39.5692L37.7986 39.5923C37.8703 39.664 37.9643 39.6998 38.0584 39.6998C38.1524 39.6998 38.2465 39.6639 38.3183 39.5921C38.4618 39.4485 38.4617 39.2159 38.3181 39.0724L38.295 39.0493Z" fill="#FF7616"/>
<path d="M26.5408 11.9287C26.6348 11.9287 26.7289 11.8929 26.8007 11.821L26.8593 11.7624C27.0027 11.6189 27.0027 11.3862 26.8592 11.2427C26.7157 11.0992 26.483 11.0993 26.3395 11.2428L26.2809 11.3015C26.1375 11.445 26.1375 11.6776 26.281 11.8212C26.3528 11.8929 26.4468 11.9287 26.5408 11.9287Z" fill="#FF7616"/>
<path d="M24.5087 13.9616C24.6027 13.9616 24.6968 13.9257 24.7686 13.854L25.9025 12.7201C26.046 12.5766 26.046 12.3439 25.9025 12.2004C25.759 12.0569 25.5263 12.0569 25.3828 12.2004L24.2489 13.3343C24.1054 13.4778 24.1054 13.7104 24.2489 13.854C24.3206 13.9257 24.4147 13.9616 24.5087 13.9616Z" fill="#FF7616"/>
<path d="M22.4774 15.993C22.5714 15.993 22.6655 15.9571 22.7373 15.8854L23.8712 14.7515C24.0147 14.608 24.0147 14.3753 23.8712 14.2318C23.7277 14.0883 23.495 14.0883 23.3515 14.2318L22.2175 15.3657C22.074 15.5092 22.074 15.7418 22.2175 15.8854C22.2893 15.9571 22.3833 15.993 22.4774 15.993Z" fill="#FF7616"/>
<path d="M20.446 18.0243C20.5401 18.0243 20.6341 17.9885 20.7059 17.9167L21.8397 16.7828C21.9833 16.6393 21.9833 16.4067 21.8397 16.2631C21.6962 16.1196 21.4635 16.1197 21.32 16.2631L20.1862 17.3971C20.0426 17.5406 20.0426 17.7732 20.1862 17.9168C20.2579 17.9885 20.352 18.0243 20.446 18.0243Z" fill="#FF7616"/>
</svg>
